<?xml version="1.0"?>
<svg xmlns="http://www.w3.org/2000/svg" xmlns:xlink="http://www.w3.org/1999/xlink" xmlns:svgjs="http://svgjs.com/svgjs" version="1.1" width="512" height="512" x="0" y="0" viewBox="0 0 512 512" style="enable-background:new 0 0 512 512" xml:space="preserve" class=""><g><g xmlns="http://www.w3.org/2000/svg"><path d="m256 392-30 60 30 60c33.137 0 60-26.863 60-60s-26.863-60-60-60z" fill="#f2acc6" data-original="#0a77e8" style=""/><path d="m196 452c0 33.137 26.863 60 60 60v-120c-33.137 0-60 26.863-60 60z" fill="#f2c4d5" data-original="#0f9af0" style="" class=""/><path d="m256 0-60 60 60 60c19.851 0 36 16.149 36 36 0 10.578-4.643 20.59-12.74 27.471l-23.26 19.775-40 79.377 40 79.377h60v-52.258l40.976-34.837c34.968-29.714 55.024-73.052 55.024-118.905 0-86.019-69.981-156-156-156z" fill="#f2acc6" data-original="#0a77e8" style=""/><g fill="#0f9af0"><path d="m196 254.258v107.742h60v-158.754z" fill="#f2c4d5" data-original="#0f9af0" style="" class=""/><path d="m100 156v15h120v-15c0-19.851 16.149-36 36-36v-120c-86.019 0-156 69.981-156 156z" fill="#f2c4d5" data-original="#0f9af0" style="" class=""/></g></g></g></svg>
